<mxfile host="app.diagrams.net" modified="2023-07-03T07:40:35.039Z" agent="Mozilla/5.0 (Windows NT 10.0; Win64; x64) AppleWebKit/537.36 (KHTML, like Gecko) Chrome/111.0.0.0 Safari/537.36 Edg/111.0.1661.44" etag="hPdA2VavTDZJHAC41fMO" version="21.5.2" type="google" pages="3">
  <diagram id="C5RBs43oDa-KdzZeNtuy" name="Page Ex.1">
    <mxGraphModel grid="1" page="1" gridSize="10" guides="1" tooltips="1" connect="1" arrows="1" fold="1" pageScale="1" pageWidth="827" pageHeight="1169" math="0" shadow="0">
      <root>
        <mxCell id="WIyWlLk6GJQsqaUBKTNV-0" />
        <mxCell id="WIyWlLk6GJQsqaUBKTNV-1" parent="WIyWlLk6GJQsqaUBKTNV-0" />
        <mxCell id="WIyWlLk6GJQsqaUBKTNV-2" value="" style="rounded=0;html=1;jettySize=auto;orthogonalLoop=1;fontSize=11;endArrow=classic;endFill=1;endSize=8;strokeWidth=1;shadow=0;labelBackgroundColor=none;edgeStyle=orthogonalEdgeStyle;entryX=0.5;entryY=0;entryDx=0;entryDy=0;" edge="1" parent="WIyWlLk6GJQsqaUBKTNV-1" source="WIyWlLk6GJQsqaUBKTNV-3" target="vusD0UszO8o6KH0X3xkA-3">
          <mxGeometry relative="1" as="geometry" />
        </mxCell>
        <mxCell id="WIyWlLk6GJQsqaUBKTNV-3" value="START" style="rounded=1;whiteSpace=wrap;html=1;fontSize=19;glass=0;strokeWidth=1;shadow=0;" vertex="1" parent="WIyWlLk6GJQsqaUBKTNV-1">
          <mxGeometry x="110" y="420" width="120" height="40" as="geometry" />
        </mxCell>
        <mxCell id="WIyWlLk6GJQsqaUBKTNV-4" value="No" style="rounded=0;html=1;jettySize=auto;orthogonalLoop=1;fontSize=15;endArrow=block;endFill=0;endSize=8;strokeWidth=1;shadow=0;labelBackgroundColor=none;edgeStyle=orthogonalEdgeStyle;" edge="1" parent="WIyWlLk6GJQsqaUBKTNV-1" source="WIyWlLk6GJQsqaUBKTNV-6" target="WIyWlLk6GJQsqaUBKTNV-10">
          <mxGeometry x="-0.5" y="20" relative="1" as="geometry">
            <mxPoint as="offset" />
          </mxGeometry>
        </mxCell>
        <mxCell id="WIyWlLk6GJQsqaUBKTNV-5" value="Yes" style="edgeStyle=orthogonalEdgeStyle;rounded=0;html=1;jettySize=auto;orthogonalLoop=1;fontSize=14;endArrow=block;endFill=0;endSize=8;strokeWidth=1;shadow=0;labelBackgroundColor=none;entryX=0;entryY=0.5;entryDx=0;entryDy=0;" edge="1" parent="WIyWlLk6GJQsqaUBKTNV-1" source="WIyWlLk6GJQsqaUBKTNV-6" target="vusD0UszO8o6KH0X3xkA-5">
          <mxGeometry x="-0.7143" y="20" relative="1" as="geometry">
            <mxPoint as="offset" />
            <mxPoint x="350" y="670" as="targetPoint" />
          </mxGeometry>
        </mxCell>
        <mxCell id="WIyWlLk6GJQsqaUBKTNV-6" value="age &amp;lt; 20" style="rhombus;whiteSpace=wrap;html=1;shadow=0;fontFamily=Helvetica;fontSize=12;align=center;strokeWidth=1;spacing=6;spacingTop=-4;" vertex="1" parent="WIyWlLk6GJQsqaUBKTNV-1">
          <mxGeometry x="120" y="590" width="100" height="80" as="geometry" />
        </mxCell>
        <mxCell id="WIyWlLk6GJQsqaUBKTNV-8" value="No" style="rounded=0;html=1;jettySize=auto;orthogonalLoop=1;fontSize=16;endArrow=block;endFill=0;endSize=8;strokeWidth=1;shadow=0;labelBackgroundColor=none;edgeStyle=orthogonalEdgeStyle;exitX=0.5;exitY=1;exitDx=0;exitDy=0;" edge="1" parent="WIyWlLk6GJQsqaUBKTNV-1" source="WIyWlLk6GJQsqaUBKTNV-10" target="vusD0UszO8o6KH0X3xkA-8">
          <mxGeometry x="-0.8" y="20" relative="1" as="geometry">
            <mxPoint as="offset" />
            <mxPoint x="170" y="840" as="targetPoint" />
          </mxGeometry>
        </mxCell>
        <mxCell id="WIyWlLk6GJQsqaUBKTNV-9" value="Yes" style="edgeStyle=orthogonalEdgeStyle;rounded=0;html=1;jettySize=auto;orthogonalLoop=1;fontSize=14;endArrow=block;endFill=0;endSize=8;strokeWidth=1;shadow=0;labelBackgroundColor=none;entryX=0;entryY=0.5;entryDx=0;entryDy=0;" edge="1" parent="WIyWlLk6GJQsqaUBKTNV-1" source="WIyWlLk6GJQsqaUBKTNV-10" target="vusD0UszO8o6KH0X3xkA-6">
          <mxGeometry x="-0.7143" y="20" relative="1" as="geometry">
            <mxPoint as="offset" />
            <mxPoint x="420" y="760" as="targetPoint" />
          </mxGeometry>
        </mxCell>
        <mxCell id="WIyWlLk6GJQsqaUBKTNV-10" value="age &amp;lt; 40" style="rhombus;whiteSpace=wrap;html=1;shadow=0;fontFamily=Helvetica;fontSize=12;align=center;strokeWidth=1;spacing=6;spacingTop=-4;" vertex="1" parent="WIyWlLk6GJQsqaUBKTNV-1">
          <mxGeometry x="120" y="700" width="100" height="80" as="geometry" />
        </mxCell>
        <mxCell id="WIyWlLk6GJQsqaUBKTNV-11" value="END" style="rounded=1;whiteSpace=wrap;html=1;fontSize=19;glass=0;strokeWidth=1;shadow=0;" vertex="1" parent="WIyWlLk6GJQsqaUBKTNV-1">
          <mxGeometry x="645" y="1080" width="90" height="40" as="geometry" />
        </mxCell>
        <mxCell id="vusD0UszO8o6KH0X3xkA-0" value="ตัวอย่าง Algorithm ขั้นตอนวิธี&amp;nbsp;&lt;br style=&quot;font-size: 19px&quot;&gt;&amp;nbsp; &lt;b style=&quot;font-size: 19px&quot;&gt;Input:&lt;/b&gt; อายุ (age)&lt;br style=&quot;font-size: 19px&quot;&gt;&amp;nbsp; &lt;b style=&quot;font-size: 19px&quot;&gt;Output:&lt;/b&gt; วัย (age category)&lt;br style=&quot;font-size: 19px&quot;&gt;&lt;br style=&quot;font-size: 19px&quot;&gt;&amp;nbsp; 1.&amp;nbsp; Input (รับค่า) อายุ age&lt;br style=&quot;font-size: 19px&quot;&gt;&amp;nbsp; 2.&amp;nbsp; If (ถ้า) อายุต่ำกว่า 20 ปี&amp;nbsp;&lt;br style=&quot;font-size: 19px&quot;&gt;&amp;nbsp; &amp;nbsp; &amp;nbsp; Then (แล้ว) &lt;br style=&quot;font-size: 19px&quot;&gt;&amp;nbsp; &amp;nbsp; &amp;nbsp; &amp;nbsp; &amp;nbsp; &amp;nbsp; ให้กำหนดค่า&amp;nbsp; category = &#39;Minor&#39;&amp;nbsp; &lt;br style=&quot;font-size: 19px&quot;&gt;&amp;nbsp; &amp;nbsp; &amp;nbsp; Else if (ไม่เช่นนั้น ถ้า)&amp;nbsp; อายุต่ำกว่า 40 ปี&amp;nbsp;&lt;br style=&quot;font-size: 19px&quot;&gt;&amp;nbsp; &amp;nbsp; &amp;nbsp; Then&amp;nbsp;(แล้ว) &lt;br style=&quot;font-size: 19px&quot;&gt;&amp;nbsp; &amp;nbsp; &amp;nbsp; &amp;nbsp; &amp;nbsp; &amp;nbsp;ให้กำหนดค่า&amp;nbsp; category = &#39;Young Adult&#39;&amp;nbsp;&lt;br style=&quot;font-size: 19px&quot;&gt;&amp;nbsp; &amp;nbsp; &amp;nbsp; Else if (ไม่เช่นนั้น ถ้า)&amp;nbsp; อายุต่ำกว่า 60 ปี&lt;br style=&quot;font-size: 19px&quot;&gt;&amp;nbsp; &amp;nbsp; &amp;nbsp; Then (แล้ว)&amp;nbsp; &lt;br style=&quot;font-size: 19px&quot;&gt;&amp;nbsp; &amp;nbsp; &amp;nbsp; &amp;nbsp; &amp;nbsp; &amp;nbsp;ให้กำหนดค่า&amp;nbsp; category = &#39;Middle-age Adult&#39;&amp;nbsp;&lt;br style=&quot;font-size: 19px&quot;&gt;&amp;nbsp; &amp;nbsp; &amp;nbsp; Else (ไม่เช่นนั้นแล้ว)&amp;nbsp;&lt;br style=&quot;font-size: 19px&quot;&gt;&amp;nbsp; &amp;nbsp; &amp;nbsp; &amp;nbsp; &amp;nbsp; &amp;nbsp;&amp;nbsp;ให้กำหนดค่า&amp;nbsp; category = &#39;Senior&#39;&amp;nbsp;&lt;br style=&quot;font-size: 19px&quot;&gt;&lt;br style=&quot;font-size: 19px&quot;&gt;&amp;nbsp; 3. Display (แสดงผล) category&amp;nbsp;" style="text;html=1;strokeColor=none;fillColor=none;align=left;verticalAlign=middle;whiteSpace=wrap;rounded=0;fontSize=19;" vertex="1" parent="WIyWlLk6GJQsqaUBKTNV-1">
          <mxGeometry x="340" y="140" width="470" height="420" as="geometry" />
        </mxCell>
        <mxCell id="vusD0UszO8o6KH0X3xkA-1" value="(template)&amp;nbsp;Lab 01 Ex 1. ตรวจสอบช่วงอายุ Age Categorisation" style="text;html=1;strokeColor=none;fillColor=none;align=left;verticalAlign=middle;whiteSpace=wrap;rounded=0;fontSize=20;" vertex="1" parent="WIyWlLk6GJQsqaUBKTNV-1">
          <mxGeometry x="30" y="40" width="680" height="40" as="geometry" />
        </mxCell>
        <mxCell id="vusD0UszO8o6KH0X3xkA-4" value="" style="edgeStyle=orthogonalEdgeStyle;rounded=0;orthogonalLoop=1;jettySize=auto;html=1;fontSize=16;" edge="1" parent="WIyWlLk6GJQsqaUBKTNV-1" source="vusD0UszO8o6KH0X3xkA-3" target="WIyWlLk6GJQsqaUBKTNV-6">
          <mxGeometry relative="1" as="geometry" />
        </mxCell>
        <mxCell id="vusD0UszO8o6KH0X3xkA-3" value="รับค่าอายุ age" style="shape=parallelogram;perimeter=parallelogramPerimeter;whiteSpace=wrap;html=1;fixedSize=1;fontSize=16;align=center;" vertex="1" parent="WIyWlLk6GJQsqaUBKTNV-1">
          <mxGeometry x="70" y="500" width="200" height="60" as="geometry" />
        </mxCell>
        <mxCell id="nSMbEcwr8yLIM_YpnpjM-2" style="edgeStyle=orthogonalEdgeStyle;rounded=0;orthogonalLoop=1;jettySize=auto;html=1;exitX=1;exitY=0.5;exitDx=0;exitDy=0;entryX=0.5;entryY=0;entryDx=0;entryDy=0;" edge="1" parent="WIyWlLk6GJQsqaUBKTNV-1" source="vusD0UszO8o6KH0X3xkA-5" target="vusD0UszO8o6KH0X3xkA-16">
          <mxGeometry relative="1" as="geometry" />
        </mxCell>
        <mxCell id="vusD0UszO8o6KH0X3xkA-5" value="category=&#39;Minor&#39;" style="rounded=0;whiteSpace=wrap;html=1;fontSize=16;align=center;" vertex="1" parent="WIyWlLk6GJQsqaUBKTNV-1">
          <mxGeometry x="280" y="600" width="160" height="60" as="geometry" />
        </mxCell>
        <mxCell id="nSMbEcwr8yLIM_YpnpjM-3" style="edgeStyle=orthogonalEdgeStyle;rounded=0;orthogonalLoop=1;jettySize=auto;html=1;exitX=1;exitY=0.5;exitDx=0;exitDy=0;" edge="1" parent="WIyWlLk6GJQsqaUBKTNV-1" source="vusD0UszO8o6KH0X3xkA-6">
          <mxGeometry relative="1" as="geometry">
            <mxPoint x="690" y="740.4444444444443" as="targetPoint" />
          </mxGeometry>
        </mxCell>
        <mxCell id="vusD0UszO8o6KH0X3xkA-6" value="category=&#39;Young Adult&#39;" style="rounded=0;whiteSpace=wrap;html=1;fontSize=16;align=center;" vertex="1" parent="WIyWlLk6GJQsqaUBKTNV-1">
          <mxGeometry x="280" y="710" width="200" height="60" as="geometry" />
        </mxCell>
        <mxCell id="vusD0UszO8o6KH0X3xkA-8" value="age &amp;lt; 60" style="rhombus;whiteSpace=wrap;html=1;shadow=0;fontFamily=Helvetica;fontSize=12;align=center;strokeWidth=1;spacing=6;spacingTop=-4;" vertex="1" parent="WIyWlLk6GJQsqaUBKTNV-1">
          <mxGeometry x="120" y="820" width="100" height="80" as="geometry" />
        </mxCell>
        <mxCell id="nSMbEcwr8yLIM_YpnpjM-4" style="edgeStyle=orthogonalEdgeStyle;rounded=0;orthogonalLoop=1;jettySize=auto;html=1;exitX=1;exitY=0.5;exitDx=0;exitDy=0;" edge="1" parent="WIyWlLk6GJQsqaUBKTNV-1" source="vusD0UszO8o6KH0X3xkA-9">
          <mxGeometry relative="1" as="geometry">
            <mxPoint x="690" y="860.4444444444443" as="targetPoint" />
          </mxGeometry>
        </mxCell>
        <mxCell id="vusD0UszO8o6KH0X3xkA-9" value="category=&#39;Middle-age Adult&#39;" style="rounded=0;whiteSpace=wrap;html=1;fontSize=16;align=center;" vertex="1" parent="WIyWlLk6GJQsqaUBKTNV-1">
          <mxGeometry x="280" y="830" width="240" height="60" as="geometry" />
        </mxCell>
        <mxCell id="vusD0UszO8o6KH0X3xkA-10" value="Yes" style="edgeStyle=orthogonalEdgeStyle;rounded=0;html=1;jettySize=auto;orthogonalLoop=1;fontSize=14;endArrow=block;endFill=0;endSize=8;strokeWidth=1;shadow=0;labelBackgroundColor=none;entryX=0;entryY=0.5;entryDx=0;entryDy=0;exitX=1;exitY=0.5;exitDx=0;exitDy=0;" edge="1" parent="WIyWlLk6GJQsqaUBKTNV-1" source="vusD0UszO8o6KH0X3xkA-8" target="vusD0UszO8o6KH0X3xkA-9">
          <mxGeometry x="-0.7143" y="20" relative="1" as="geometry">
            <mxPoint as="offset" />
            <mxPoint x="230" y="760" as="sourcePoint" />
            <mxPoint x="370" y="760" as="targetPoint" />
          </mxGeometry>
        </mxCell>
        <mxCell id="vusD0UszO8o6KH0X3xkA-11" value="No" style="rounded=0;html=1;jettySize=auto;orthogonalLoop=1;fontSize=16;endArrow=block;endFill=0;endSize=8;strokeWidth=1;shadow=0;labelBackgroundColor=none;edgeStyle=orthogonalEdgeStyle;exitX=0.5;exitY=1;exitDx=0;exitDy=0;entryX=0;entryY=0.5;entryDx=0;entryDy=0;" edge="1" parent="WIyWlLk6GJQsqaUBKTNV-1" source="vusD0UszO8o6KH0X3xkA-8" target="vusD0UszO8o6KH0X3xkA-12">
          <mxGeometry x="-0.8" y="20" relative="1" as="geometry">
            <mxPoint as="offset" />
            <mxPoint x="180" y="800" as="sourcePoint" />
            <mxPoint x="170" y="1010" as="targetPoint" />
          </mxGeometry>
        </mxCell>
        <mxCell id="nSMbEcwr8yLIM_YpnpjM-5" style="edgeStyle=orthogonalEdgeStyle;rounded=0;orthogonalLoop=1;jettySize=auto;html=1;exitX=1;exitY=0.5;exitDx=0;exitDy=0;" edge="1" parent="WIyWlLk6GJQsqaUBKTNV-1" source="vusD0UszO8o6KH0X3xkA-12">
          <mxGeometry relative="1" as="geometry">
            <mxPoint x="690" y="970.4444444444443" as="targetPoint" />
          </mxGeometry>
        </mxCell>
        <mxCell id="vusD0UszO8o6KH0X3xkA-12" value="category=&#39;Senior&#39;" style="rounded=0;whiteSpace=wrap;html=1;fontSize=16;align=center;" vertex="1" parent="WIyWlLk6GJQsqaUBKTNV-1">
          <mxGeometry x="280" y="940" width="160" height="60" as="geometry" />
        </mxCell>
        <mxCell id="nSMbEcwr8yLIM_YpnpjM-0" style="edgeStyle=orthogonalEdgeStyle;rounded=0;orthogonalLoop=1;jettySize=auto;html=1;exitX=0.5;exitY=1;exitDx=0;exitDy=0;entryX=0.5;entryY=0;entryDx=0;entryDy=0;" edge="1" parent="WIyWlLk6GJQsqaUBKTNV-1" source="vusD0UszO8o6KH0X3xkA-16" target="WIyWlLk6GJQsqaUBKTNV-11">
          <mxGeometry relative="1" as="geometry" />
        </mxCell>
        <mxCell id="vusD0UszO8o6KH0X3xkA-16" value="&amp;nbsp; &amp;nbsp; &amp;nbsp;&lt;font style=&quot;font-size: 20px&quot;&gt;&amp;nbsp; Display category&lt;/font&gt;" style="shape=parallelogram;perimeter=parallelogramPerimeter;whiteSpace=wrap;html=1;fixedSize=1;fontSize=16;align=left;size=40;" vertex="1" parent="WIyWlLk6GJQsqaUBKTNV-1">
          <mxGeometry x="580" y="1000" width="220" height="40" as="geometry" />
        </mxCell>
        <mxCell id="itqc5XhuJ-dpPserCjC2-0" value="6610110351" style="text;html=1;align=center;verticalAlign=middle;resizable=0;points=[];autosize=1;strokeColor=none;fillColor=none;fontSize=16;" vertex="1" parent="WIyWlLk6GJQsqaUBKTNV-1">
          <mxGeometry x="700" y="10" width="110" height="30" as="geometry" />
        </mxCell>
      </root>
    </mxGraphModel>
  </diagram>
  <diagram id="xzNsJ_V33FgAAvUgvAut" name="PageEx.2">
    <mxGraphModel grid="1" page="1" gridSize="10" guides="1" tooltips="1" connect="1" arrows="1" fold="1" pageScale="1" pageWidth="850" pageHeight="1100" math="0" shadow="0">
      <root>
        <mxCell id="0" />
        <mxCell id="1" parent="0" />
        <mxCell id="fL9zZrhz0E2EEY2QisFC-1" value="ตรวจสอบรูปสามเหลี่ยม" style="text;html=1;align=center;verticalAlign=middle;resizable=0;points=[];autosize=1;strokeColor=none;fillColor=none;fontSize=16;" vertex="1" parent="1">
          <mxGeometry x="340" y="45" width="170" height="30" as="geometry" />
        </mxCell>
        <mxCell id="DKndFZnZmMQVIwlQ_u8Q-3" style="edgeStyle=orthogonalEdgeStyle;rounded=0;orthogonalLoop=1;jettySize=auto;html=1;exitX=0.5;exitY=1;exitDx=0;exitDy=0;entryX=0.5;entryY=0;entryDx=0;entryDy=0;fontSize=16;" edge="1" parent="1" source="DKndFZnZmMQVIwlQ_u8Q-1" target="DKndFZnZmMQVIwlQ_u8Q-2">
          <mxGeometry relative="1" as="geometry" />
        </mxCell>
        <mxCell id="DKndFZnZmMQVIwlQ_u8Q-1" value="Start" style="rounded=1;whiteSpace=wrap;html=1;fontSize=16;" vertex="1" parent="1">
          <mxGeometry x="122" y="120" width="120" height="40" as="geometry" />
        </mxCell>
        <mxCell id="DKndFZnZmMQVIwlQ_u8Q-6" style="edgeStyle=orthogonalEdgeStyle;rounded=0;orthogonalLoop=1;jettySize=auto;html=1;exitX=0.5;exitY=1;exitDx=0;exitDy=0;entryX=0.5;entryY=0;entryDx=0;entryDy=0;fontSize=16;" edge="1" parent="1" source="DKndFZnZmMQVIwlQ_u8Q-2" target="DKndFZnZmMQVIwlQ_u8Q-4">
          <mxGeometry relative="1" as="geometry" />
        </mxCell>
        <mxCell id="DKndFZnZmMQVIwlQ_u8Q-2" value="รับค่า ความยาวด้านทั้งสามด้าน a , b , c" style="shape=parallelogram;perimeter=parallelogramPerimeter;whiteSpace=wrap;html=1;fixedSize=1;fontSize=16;" vertex="1" parent="1">
          <mxGeometry x="40" y="200" width="285" height="40" as="geometry" />
        </mxCell>
        <mxCell id="DKndFZnZmMQVIwlQ_u8Q-10" style="edgeStyle=orthogonalEdgeStyle;rounded=0;orthogonalLoop=1;jettySize=auto;html=1;exitX=0.5;exitY=1;exitDx=0;exitDy=0;entryX=0.5;entryY=0;entryDx=0;entryDy=0;fontSize=16;" edge="1" parent="1" source="DKndFZnZmMQVIwlQ_u8Q-4" target="DKndFZnZmMQVIwlQ_u8Q-9">
          <mxGeometry relative="1" as="geometry" />
        </mxCell>
        <mxCell id="krGHNvHwPY9r22Z7-7-b-17" style="edgeStyle=orthogonalEdgeStyle;rounded=0;orthogonalLoop=1;jettySize=auto;html=1;exitX=1;exitY=0.5;exitDx=0;exitDy=0;entryX=0.5;entryY=0;entryDx=0;entryDy=0;" edge="1" parent="1" source="DKndFZnZmMQVIwlQ_u8Q-4" target="DKndFZnZmMQVIwlQ_u8Q-14">
          <mxGeometry relative="1" as="geometry" />
        </mxCell>
        <mxCell id="DKndFZnZmMQVIwlQ_u8Q-4" value="a&amp;gt;=b+c" style="rhombus;whiteSpace=wrap;html=1;fontSize=16;" vertex="1" parent="1">
          <mxGeometry x="142" y="280" width="80" height="80" as="geometry" />
        </mxCell>
        <mxCell id="DKndFZnZmMQVIwlQ_u8Q-8" value="Yes" style="text;html=1;align=center;verticalAlign=middle;resizable=0;points=[];autosize=1;strokeColor=none;fillColor=none;fontSize=16;" vertex="1" parent="1">
          <mxGeometry x="217" y="290" width="50" height="30" as="geometry" />
        </mxCell>
        <mxCell id="DKndFZnZmMQVIwlQ_u8Q-15" style="edgeStyle=orthogonalEdgeStyle;rounded=0;orthogonalLoop=1;jettySize=auto;html=1;exitX=1;exitY=0.5;exitDx=0;exitDy=0;entryX=0;entryY=0.5;entryDx=0;entryDy=0;fontSize=16;" edge="1" parent="1" source="DKndFZnZmMQVIwlQ_u8Q-9" target="DKndFZnZmMQVIwlQ_u8Q-14">
          <mxGeometry relative="1" as="geometry" />
        </mxCell>
        <mxCell id="DKndFZnZmMQVIwlQ_u8Q-21" style="edgeStyle=orthogonalEdgeStyle;rounded=0;orthogonalLoop=1;jettySize=auto;html=1;exitX=0.5;exitY=1;exitDx=0;exitDy=0;entryX=0.5;entryY=0;entryDx=0;entryDy=0;fontSize=16;" edge="1" parent="1" source="DKndFZnZmMQVIwlQ_u8Q-9" target="DKndFZnZmMQVIwlQ_u8Q-18">
          <mxGeometry relative="1" as="geometry" />
        </mxCell>
        <mxCell id="DKndFZnZmMQVIwlQ_u8Q-9" value="b&amp;gt;=c+a" style="rhombus;whiteSpace=wrap;html=1;fontSize=16;" vertex="1" parent="1">
          <mxGeometry x="142" y="400" width="80" height="80" as="geometry" />
        </mxCell>
        <mxCell id="krGHNvHwPY9r22Z7-7-b-10" style="edgeStyle=orthogonalEdgeStyle;rounded=0;orthogonalLoop=1;jettySize=auto;html=1;exitX=1;exitY=0.5;exitDx=0;exitDy=0;entryX=0;entryY=0.5;entryDx=0;entryDy=0;fontSize=16;" edge="1" parent="1" source="DKndFZnZmMQVIwlQ_u8Q-14" target="krGHNvHwPY9r22Z7-7-b-2">
          <mxGeometry relative="1" as="geometry" />
        </mxCell>
        <mxCell id="DKndFZnZmMQVIwlQ_u8Q-14" value="triangle = False" style="rounded=0;whiteSpace=wrap;html=1;fontSize=16;" vertex="1" parent="1">
          <mxGeometry x="320" y="420" width="120" height="40" as="geometry" />
        </mxCell>
        <mxCell id="DKndFZnZmMQVIwlQ_u8Q-16" value="Yes" style="text;html=1;align=center;verticalAlign=middle;resizable=0;points=[];autosize=1;strokeColor=none;fillColor=none;fontSize=16;" vertex="1" parent="1">
          <mxGeometry x="217" y="410" width="50" height="30" as="geometry" />
        </mxCell>
        <mxCell id="DKndFZnZmMQVIwlQ_u8Q-17" value="No" style="text;html=1;align=center;verticalAlign=middle;resizable=0;points=[];autosize=1;strokeColor=none;fillColor=none;fontSize=16;" vertex="1" parent="1">
          <mxGeometry x="177" y="358" width="40" height="30" as="geometry" />
        </mxCell>
        <mxCell id="DKndFZnZmMQVIwlQ_u8Q-25" style="edgeStyle=orthogonalEdgeStyle;rounded=0;orthogonalLoop=1;jettySize=auto;html=1;exitX=0.5;exitY=1;exitDx=0;exitDy=0;entryX=0;entryY=0.5;entryDx=0;entryDy=0;fontSize=16;" edge="1" parent="1" source="DKndFZnZmMQVIwlQ_u8Q-18" target="DKndFZnZmMQVIwlQ_u8Q-24">
          <mxGeometry relative="1" as="geometry" />
        </mxCell>
        <mxCell id="krGHNvHwPY9r22Z7-7-b-18" style="edgeStyle=orthogonalEdgeStyle;rounded=0;orthogonalLoop=1;jettySize=auto;html=1;exitX=1;exitY=0.5;exitDx=0;exitDy=0;entryX=0.5;entryY=1;entryDx=0;entryDy=0;" edge="1" parent="1" source="DKndFZnZmMQVIwlQ_u8Q-18" target="DKndFZnZmMQVIwlQ_u8Q-14">
          <mxGeometry relative="1" as="geometry" />
        </mxCell>
        <mxCell id="DKndFZnZmMQVIwlQ_u8Q-18" value="c&amp;gt;=a+b" style="rhombus;whiteSpace=wrap;html=1;fontSize=16;" vertex="1" parent="1">
          <mxGeometry x="142" y="520" width="80" height="80" as="geometry" />
        </mxCell>
        <mxCell id="DKndFZnZmMQVIwlQ_u8Q-22" value="No" style="text;html=1;align=center;verticalAlign=middle;resizable=0;points=[];autosize=1;strokeColor=none;fillColor=none;fontSize=16;" vertex="1" parent="1">
          <mxGeometry x="177" y="478" width="40" height="30" as="geometry" />
        </mxCell>
        <mxCell id="DKndFZnZmMQVIwlQ_u8Q-23" value="Yes" style="text;html=1;align=center;verticalAlign=middle;resizable=0;points=[];autosize=1;strokeColor=none;fillColor=none;fontSize=16;" vertex="1" parent="1">
          <mxGeometry x="217" y="520" width="50" height="30" as="geometry" />
        </mxCell>
        <mxCell id="krGHNvHwPY9r22Z7-7-b-11" style="edgeStyle=orthogonalEdgeStyle;rounded=0;orthogonalLoop=1;jettySize=auto;html=1;exitX=1;exitY=0.5;exitDx=0;exitDy=0;entryX=0;entryY=0.5;entryDx=0;entryDy=0;fontSize=16;" edge="1" parent="1" source="DKndFZnZmMQVIwlQ_u8Q-24" target="krGHNvHwPY9r22Z7-7-b-2">
          <mxGeometry relative="1" as="geometry" />
        </mxCell>
        <mxCell id="DKndFZnZmMQVIwlQ_u8Q-24" value="triangle = True" style="rounded=0;whiteSpace=wrap;html=1;fontSize=16;" vertex="1" parent="1">
          <mxGeometry x="320" y="640" width="120" height="40" as="geometry" />
        </mxCell>
        <mxCell id="krGHNvHwPY9r22Z7-7-b-19" style="edgeStyle=orthogonalEdgeStyle;rounded=0;orthogonalLoop=1;jettySize=auto;html=1;exitX=0.5;exitY=1;exitDx=0;exitDy=0;entryX=0;entryY=0.5;entryDx=0;entryDy=0;" edge="1" parent="1" source="DKndFZnZmMQVIwlQ_u8Q-26" target="DKndFZnZmMQVIwlQ_u8Q-32">
          <mxGeometry relative="1" as="geometry" />
        </mxCell>
        <mxCell id="DKndFZnZmMQVIwlQ_u8Q-26" value="These cannot form a triangle" style="rounded=0;whiteSpace=wrap;html=1;fontSize=16;" vertex="1" parent="1">
          <mxGeometry x="420" y="720" width="220" height="40" as="geometry" />
        </mxCell>
        <mxCell id="krGHNvHwPY9r22Z7-7-b-16" style="edgeStyle=orthogonalEdgeStyle;rounded=0;orthogonalLoop=1;jettySize=auto;html=1;exitX=0.5;exitY=1;exitDx=0;exitDy=0;entryX=0.5;entryY=0;entryDx=0;entryDy=0;" edge="1" parent="1" source="DKndFZnZmMQVIwlQ_u8Q-30" target="DKndFZnZmMQVIwlQ_u8Q-32">
          <mxGeometry relative="1" as="geometry" />
        </mxCell>
        <mxCell id="DKndFZnZmMQVIwlQ_u8Q-30" value="These can form a triangle" style="rounded=0;whiteSpace=wrap;html=1;fontSize=16;" vertex="1" parent="1">
          <mxGeometry x="640" y="530" width="200" height="40" as="geometry" />
        </mxCell>
        <mxCell id="DKndFZnZmMQVIwlQ_u8Q-32" value="End" style="rounded=1;whiteSpace=wrap;html=1;fontSize=16;" vertex="1" parent="1">
          <mxGeometry x="680" y="830" width="120" height="40" as="geometry" />
        </mxCell>
        <mxCell id="krGHNvHwPY9r22Z7-7-b-1" value="Input: ความยาวด้านทั้งสามด้าน a , b , c&lt;br style=&quot;font-size: 16px;&quot;&gt;Output: These can or cannot form a triangle&lt;br style=&quot;font-size: 16px;&quot;&gt;&lt;ol style=&quot;font-size: 16px;&quot;&gt;&lt;li style=&quot;font-size: 16px;&quot;&gt;input ความยาวด้านท้งสามด้านของ a , b , c&lt;br style=&quot;font-size: 16px;&quot;&gt;&lt;/li&gt;&lt;li style=&quot;font-size: 16px;&quot;&gt;if a&amp;gt;=b+c&lt;br style=&quot;font-size: 16px;&quot;&gt;then triangle=False&lt;br style=&quot;font-size: 16px;&quot;&gt;else if b&amp;gt;=c+a&lt;br style=&quot;font-size: 16px;&quot;&gt;then triangle=False&lt;br style=&quot;font-size: 16px;&quot;&gt;else if c&amp;gt;=a+b&lt;br style=&quot;font-size: 16px;&quot;&gt;then triangle=False&lt;br style=&quot;font-size: 16px;&quot;&gt;else triangle=True&lt;/li&gt;&lt;li style=&quot;font-size: 16px;&quot;&gt;if triangle=True&lt;br&gt;then These can form a triangle&lt;br&gt;else These cannot form a triangle&lt;/li&gt;&lt;/ol&gt;" style="text;html=1;align=left;verticalAlign=middle;resizable=0;points=[];autosize=1;strokeColor=none;fillColor=none;fontSize=16;" vertex="1" parent="1">
          <mxGeometry x="460" y="120" width="350" height="290" as="geometry" />
        </mxCell>
        <mxCell id="krGHNvHwPY9r22Z7-7-b-12" style="edgeStyle=orthogonalEdgeStyle;rounded=0;orthogonalLoop=1;jettySize=auto;html=1;exitX=1;exitY=0.5;exitDx=0;exitDy=0;entryX=0;entryY=0.5;entryDx=0;entryDy=0;fontSize=16;" edge="1" parent="1" source="krGHNvHwPY9r22Z7-7-b-2" target="DKndFZnZmMQVIwlQ_u8Q-30">
          <mxGeometry relative="1" as="geometry" />
        </mxCell>
        <mxCell id="krGHNvHwPY9r22Z7-7-b-20" style="edgeStyle=orthogonalEdgeStyle;rounded=0;orthogonalLoop=1;jettySize=auto;html=1;exitX=0.5;exitY=1;exitDx=0;exitDy=0;entryX=0.5;entryY=0;entryDx=0;entryDy=0;" edge="1" parent="1" source="krGHNvHwPY9r22Z7-7-b-2" target="DKndFZnZmMQVIwlQ_u8Q-26">
          <mxGeometry relative="1" as="geometry" />
        </mxCell>
        <mxCell id="krGHNvHwPY9r22Z7-7-b-2" value="triangle=True" style="rhombus;whiteSpace=wrap;html=1;fontSize=16;" vertex="1" parent="1">
          <mxGeometry x="480" y="500" width="100" height="100" as="geometry" />
        </mxCell>
        <mxCell id="krGHNvHwPY9r22Z7-7-b-9" value="No" style="text;html=1;align=center;verticalAlign=middle;resizable=0;points=[];autosize=1;strokeColor=none;fillColor=none;fontSize=16;" vertex="1" parent="1">
          <mxGeometry x="180" y="598" width="40" height="30" as="geometry" />
        </mxCell>
        <mxCell id="krGHNvHwPY9r22Z7-7-b-14" value="Yes" style="text;html=1;align=center;verticalAlign=middle;resizable=0;points=[];autosize=1;strokeColor=none;fillColor=none;fontSize=16;" vertex="1" parent="1">
          <mxGeometry x="575" y="520" width="50" height="30" as="geometry" />
        </mxCell>
        <mxCell id="krGHNvHwPY9r22Z7-7-b-15" value="No" style="text;html=1;align=center;verticalAlign=middle;resizable=0;points=[];autosize=1;strokeColor=none;fillColor=none;fontSize=16;" vertex="1" parent="1">
          <mxGeometry x="540" y="600" width="40" height="30" as="geometry" />
        </mxCell>
        <mxCell id="XIgp6kU7T6KLbCSpT2JW-1" value="6610110351" style="text;html=1;align=center;verticalAlign=middle;resizable=0;points=[];autosize=1;strokeColor=none;fillColor=none;fontSize=16;" vertex="1" parent="1">
          <mxGeometry x="700" y="10" width="110" height="30" as="geometry" />
        </mxCell>
      </root>
    </mxGraphModel>
  </diagram>
  <diagram id="syhrtiTn6NLgytNA-HqS" name="Page Ex.3">
    <mxGraphModel grid="1" page="1" gridSize="10" guides="1" tooltips="1" connect="1" arrows="1" fold="1" pageScale="1" pageWidth="850" pageHeight="1100" math="0" shadow="0">
      <root>
        <mxCell id="0" />
        <mxCell id="1" parent="0" />
        <mxCell id="Fx6Lp-e8oG7OCnsCc4kJ-1" value="โปรแกรมคำนวณค่าผลรวมของเลขคี่บวกทุกจำนวนที่มีค่าไม่เกิน n" style="text;html=1;align=center;verticalAlign=middle;resizable=0;points=[];autosize=1;strokeColor=none;fillColor=none;fontSize=16;" vertex="1" parent="1">
          <mxGeometry x="190" y="50" width="440" height="30" as="geometry" />
        </mxCell>
        <mxCell id="Fx6Lp-e8oG7OCnsCc4kJ-7" style="edgeStyle=orthogonalEdgeStyle;rounded=0;orthogonalLoop=1;jettySize=auto;html=1;exitX=0.5;exitY=1;exitDx=0;exitDy=0;entryX=0.5;entryY=0;entryDx=0;entryDy=0;" edge="1" parent="1" source="Fx6Lp-e8oG7OCnsCc4kJ-2" target="Fx6Lp-e8oG7OCnsCc4kJ-4">
          <mxGeometry relative="1" as="geometry" />
        </mxCell>
        <mxCell id="Fx6Lp-e8oG7OCnsCc4kJ-2" value="Start" style="rounded=1;whiteSpace=wrap;html=1;fontSize=16;" vertex="1" parent="1">
          <mxGeometry x="120" y="120" width="120" height="40" as="geometry" />
        </mxCell>
        <mxCell id="Fx6Lp-e8oG7OCnsCc4kJ-8" style="edgeStyle=orthogonalEdgeStyle;rounded=0;orthogonalLoop=1;jettySize=auto;html=1;exitX=0.5;exitY=1;exitDx=0;exitDy=0;entryX=0.5;entryY=0;entryDx=0;entryDy=0;" edge="1" parent="1" source="Fx6Lp-e8oG7OCnsCc4kJ-4" target="Fx6Lp-e8oG7OCnsCc4kJ-6">
          <mxGeometry relative="1" as="geometry" />
        </mxCell>
        <mxCell id="Fx6Lp-e8oG7OCnsCc4kJ-4" value="n is positive integers" style="rounded=0;whiteSpace=wrap;html=1;fontSize=16;" vertex="1" parent="1">
          <mxGeometry x="80" y="200" width="200" height="40" as="geometry" />
        </mxCell>
        <mxCell id="Fx6Lp-e8oG7OCnsCc4kJ-10" style="edgeStyle=orthogonalEdgeStyle;rounded=0;orthogonalLoop=1;jettySize=auto;html=1;exitX=0.5;exitY=1;exitDx=0;exitDy=0;entryX=0.5;entryY=0;entryDx=0;entryDy=0;" edge="1" parent="1" source="Fx6Lp-e8oG7OCnsCc4kJ-6" target="Fx6Lp-e8oG7OCnsCc4kJ-9">
          <mxGeometry relative="1" as="geometry" />
        </mxCell>
        <mxCell id="Fx6Lp-e8oG7OCnsCc4kJ-6" value="input n" style="shape=parallelogram;perimeter=parallelogramPerimeter;whiteSpace=wrap;html=1;fixedSize=1;fontSize=16;" vertex="1" parent="1">
          <mxGeometry x="120" y="280" width="120" height="40" as="geometry" />
        </mxCell>
        <mxCell id="Fx6Lp-e8oG7OCnsCc4kJ-12" style="edgeStyle=orthogonalEdgeStyle;rounded=0;orthogonalLoop=1;jettySize=auto;html=1;exitX=1;exitY=0.5;exitDx=0;exitDy=0;entryX=0;entryY=0.5;entryDx=0;entryDy=0;" edge="1" parent="1" source="Fx6Lp-e8oG7OCnsCc4kJ-9" target="Fx6Lp-e8oG7OCnsCc4kJ-11">
          <mxGeometry relative="1" as="geometry" />
        </mxCell>
        <mxCell id="Fx6Lp-e8oG7OCnsCc4kJ-15" style="edgeStyle=orthogonalEdgeStyle;rounded=0;orthogonalLoop=1;jettySize=auto;html=1;exitX=0.5;exitY=1;exitDx=0;exitDy=0;entryX=0;entryY=0.5;entryDx=0;entryDy=0;" edge="1" parent="1" source="Fx6Lp-e8oG7OCnsCc4kJ-9" target="Fx6Lp-e8oG7OCnsCc4kJ-14">
          <mxGeometry relative="1" as="geometry" />
        </mxCell>
        <mxCell id="Fx6Lp-e8oG7OCnsCc4kJ-9" value="n is even" style="rhombus;whiteSpace=wrap;html=1;fontSize=16;" vertex="1" parent="1">
          <mxGeometry x="140" y="360" width="80" height="80" as="geometry" />
        </mxCell>
        <mxCell id="Fx6Lp-e8oG7OCnsCc4kJ-20" style="edgeStyle=orthogonalEdgeStyle;rounded=0;orthogonalLoop=1;jettySize=auto;html=1;exitX=1;exitY=0.5;exitDx=0;exitDy=0;entryX=0.5;entryY=0;entryDx=0;entryDy=0;" edge="1" parent="1" source="Fx6Lp-e8oG7OCnsCc4kJ-11" target="Fx6Lp-e8oG7OCnsCc4kJ-19">
          <mxGeometry relative="1" as="geometry" />
        </mxCell>
        <mxCell id="Fx6Lp-e8oG7OCnsCc4kJ-11" value="value =&amp;nbsp; (n/2)*(n/2)" style="rounded=0;whiteSpace=wrap;html=1;fontSize=16;" vertex="1" parent="1">
          <mxGeometry x="280" y="380" width="200" height="40" as="geometry" />
        </mxCell>
        <mxCell id="Fx6Lp-e8oG7OCnsCc4kJ-13" value="Yes" style="text;html=1;align=center;verticalAlign=middle;resizable=0;points=[];autosize=1;strokeColor=none;fillColor=none;fontSize=16;" vertex="1" parent="1">
          <mxGeometry x="215" y="370" width="50" height="30" as="geometry" />
        </mxCell>
        <mxCell id="Fx6Lp-e8oG7OCnsCc4kJ-21" style="edgeStyle=orthogonalEdgeStyle;rounded=0;orthogonalLoop=1;jettySize=auto;html=1;exitX=1;exitY=0.5;exitDx=0;exitDy=0;entryX=0.5;entryY=1;entryDx=0;entryDy=0;" edge="1" parent="1" source="Fx6Lp-e8oG7OCnsCc4kJ-14" target="Fx6Lp-e8oG7OCnsCc4kJ-19">
          <mxGeometry relative="1" as="geometry" />
        </mxCell>
        <mxCell id="Fx6Lp-e8oG7OCnsCc4kJ-14" value="value =&amp;nbsp; ((n+1)/2)*((n+1)/2)" style="rounded=0;whiteSpace=wrap;html=1;fontSize=16;" vertex="1" parent="1">
          <mxGeometry x="280" y="460" width="200" height="40" as="geometry" />
        </mxCell>
        <mxCell id="Fx6Lp-e8oG7OCnsCc4kJ-16" value="No" style="text;html=1;align=center;verticalAlign=middle;resizable=0;points=[];autosize=1;strokeColor=none;fillColor=none;fontSize=16;" vertex="1" parent="1">
          <mxGeometry x="180" y="438" width="40" height="30" as="geometry" />
        </mxCell>
        <mxCell id="Fx6Lp-e8oG7OCnsCc4kJ-23" style="edgeStyle=orthogonalEdgeStyle;rounded=0;orthogonalLoop=1;jettySize=auto;html=1;exitX=1;exitY=0.5;exitDx=0;exitDy=0;entryX=0.5;entryY=0;entryDx=0;entryDy=0;" edge="1" parent="1" source="Fx6Lp-e8oG7OCnsCc4kJ-19" target="Fx6Lp-e8oG7OCnsCc4kJ-22">
          <mxGeometry relative="1" as="geometry" />
        </mxCell>
        <mxCell id="Fx6Lp-e8oG7OCnsCc4kJ-19" value="&lt;font style=&quot;font-size: 16px;&quot;&gt;print value&lt;/font&gt;" style="shape=parallelogram;perimeter=parallelogramPerimeter;whiteSpace=wrap;html=1;fixedSize=1;" vertex="1" parent="1">
          <mxGeometry x="600" y="420" width="160" height="40" as="geometry" />
        </mxCell>
        <mxCell id="Fx6Lp-e8oG7OCnsCc4kJ-22" value="End" style="rounded=1;whiteSpace=wrap;html=1;fontSize=16;" vertex="1" parent="1">
          <mxGeometry x="690" y="560" width="120" height="40" as="geometry" />
        </mxCell>
        <mxCell id="2Ect_Qf0P3tQ0wTG4-if-1" value="6610110351" style="text;html=1;align=center;verticalAlign=middle;resizable=0;points=[];autosize=1;strokeColor=none;fillColor=none;fontSize=16;" vertex="1" parent="1">
          <mxGeometry x="730" y="10" width="110" height="30" as="geometry" />
        </mxCell>
        <mxCell id="IbbAye65aH-klSNe5aCH-1" value="Input: n&lt;br style=&quot;font-size: 16px;&quot;&gt;Output:&amp;nbsp;ผลรวมของเลขคี่บวกทุกจำนวนที่มีค่าไม่เกิน n&lt;br style=&quot;font-size: 16px;&quot;&gt;&lt;ol style=&quot;font-size: 16px;&quot;&gt;&lt;li style=&quot;font-size: 16px;&quot;&gt;n is positive integers&lt;/li&gt;&lt;li style=&quot;font-size: 16px;&quot;&gt;input n&lt;br style=&quot;font-size: 16px;&quot;&gt;&lt;/li&gt;&lt;li style=&quot;font-size: 16px;&quot;&gt;if n is even&lt;br style=&quot;font-size: 16px;&quot;&gt;then value =&amp;nbsp; (n/2)*(n/2)&lt;br style=&quot;font-size: 16px;&quot;&gt;else value =&amp;nbsp; ((n+1)/2)*((n+1)/2)&lt;br&gt;&lt;/li&gt;&lt;li style=&quot;font-size: 16px;&quot;&gt;print value&lt;/li&gt;&lt;/ol&gt;" style="text;html=1;align=left;verticalAlign=middle;resizable=0;points=[];autosize=1;strokeColor=none;fillColor=none;fontSize=16;" vertex="1" parent="1">
          <mxGeometry x="450" y="135" width="370" height="200" as="geometry" />
        </mxCell>
      </root>
    </mxGraphModel>
  </diagram>
</mxfile>
